<svg width="84" height="77" viewBox="0 0 84 77" fill="none" xmlns="http://www.w3.org/2000/svg">
<mask id="mask0_565_185" style="mask-type:luminance" maskUnits="userSpaceOnUse" x="7" y="0" width="77" height="77">
<path d="M84 0H7V77H84V0Z" fill="white"/>
</mask>
<g mask="url(#mask0_565_185)">
<path d="M10.0477 62.5671C9.55273 62.5759 9.05875 62.5198 8.57846 62.3999C8.2442 62.3148 7.9284 62.169 7.64676 61.9699C7.43007 61.8284 7.25649 61.6301 7.14506 61.3965C7.04558 61.1958 6.9925 60.9755 6.98977 60.7515C6.98202 60.5691 7.01941 60.3874 7.09858 60.2229C7.17775 60.0582 7.29628 59.9157 7.44368 59.8078C7.58984 59.71 7.75133 59.6374 7.92147 59.5929C8.10216 59.5546 8.28626 59.5346 8.47095 59.5332C8.46705 59.8643 8.5113 60.1941 8.60233 60.5126C8.6739 60.7713 8.80018 61.0116 8.97262 61.2173C9.12295 61.4032 9.3154 61.5506 9.53403 61.6474C9.76012 61.7452 10.0044 61.7941 10.2507 61.7907C10.4822 61.7939 10.7124 61.7576 10.9316 61.6832C11.1193 61.623 11.2908 61.5208 11.4332 61.3846C11.575 61.2608 11.6855 61.1053 11.7558 60.9307C11.8293 60.7569 11.8659 60.5699 11.8633 60.3812C11.8665 60.1784 11.8215 59.9778 11.7319 59.7959C11.6313 59.6101 11.4929 59.4473 11.3258 59.3181C11.1151 59.1539 10.8868 59.0136 10.6449 58.9001C10.3347 58.7388 10.0157 58.5953 9.68932 58.4701C9.2741 58.3119 8.87425 58.116 8.49483 57.8848C8.21196 57.715 7.95793 57.5014 7.7423 57.2517C7.555 57.037 7.41645 56.7844 7.33618 56.5111C7.2483 56.2247 7.20402 55.9267 7.20481 55.6271C7.19963 55.2551 7.28141 54.8869 7.44368 54.5521C7.60467 54.2324 7.83285 53.9513 8.11259 53.7279C8.41403 53.4862 8.75855 53.3038 9.12791 53.1904C9.53875 53.0682 9.96546 53.0079 10.3941 53.0112C10.7954 53.006 11.1962 53.0461 11.5886 53.1307C11.8921 53.1861 12.1834 53.2954 12.4486 53.4532C12.657 53.567 12.8336 53.7313 12.9622 53.931C13.0696 54.1118 13.1273 54.3179 13.1294 54.5282C13.1292 54.6744 13.0922 54.8181 13.0219 54.9462C12.9536 55.0854 12.8508 55.2046 12.7233 55.2927C12.5702 55.3964 12.4006 55.4731 12.2216 55.5196C11.9919 55.5811 11.7546 55.6092 11.5169 55.6032C11.5152 55.4061 11.4912 55.2097 11.4452 55.018C11.398 54.8111 11.3173 54.6135 11.2063 54.4327C11.0984 54.2513 10.9516 54.0963 10.7763 53.9788C10.5892 53.8543 10.3678 53.7917 10.1432 53.7996C9.97228 53.7963 9.80217 53.8246 9.64153 53.8832C9.49091 53.9276 9.35214 54.0052 9.2354 54.1102C9.1114 54.2108 9.01657 54.3428 8.96071 54.4924C8.88723 54.6535 8.85052 54.829 8.8532 55.0061C8.85385 55.1816 8.88621 55.3556 8.94874 55.5196C9.0192 55.7011 9.12939 55.8643 9.27124 55.9974C9.46917 56.1805 9.69002 56.337 9.92823 56.4633C10.2757 56.6528 10.6348 56.8204 11.0033 56.9649C11.4162 57.1141 11.8158 57.2978 12.1977 57.5144C12.4871 57.6801 12.749 57.8897 12.9742 58.1356C13.1694 58.3414 13.3199 58.5854 13.4161 58.8523C13.5108 59.1329 13.5553 59.4281 13.5475 59.7242C13.5597 60.1158 13.4795 60.5047 13.3135 60.8595C13.1475 61.2144 12.9003 61.5252 12.5919 61.7668C12.2598 62.03 11.8837 62.2322 11.4811 62.3641C11.0152 62.4991 10.5327 62.5674 10.0477 62.5671Z" fill="white"/>
<path d="M23.7724 57.7765C23.7805 58.4405 23.6838 59.1017 23.4857 59.7355C23.3057 60.2947 23.013 60.8109 22.6257 61.2525C22.2463 61.6742 21.7767 62.0049 21.252 62.22C20.652 62.4595 20.0105 62.5772 19.3648 62.5664C18.7032 62.5791 18.0457 62.4614 17.4297 62.22C16.8973 62.0127 16.4222 61.6809 16.044 61.2525C15.6716 60.8082 15.3951 60.2918 15.2318 59.7355C15.0388 59.0967 14.9461 58.4318 14.9571 57.7646C14.9452 57.1012 15.0379 56.4402 15.2318 55.8057C15.3945 55.2503 15.6757 54.7369 16.056 54.3006C16.4307 53.8738 16.9016 53.5421 17.4297 53.3331C18.0549 53.096 18.7202 52.9825 19.3886 52.9986C20.0258 52.9847 20.6594 53.0984 21.252 53.3331C21.7802 53.5481 22.2537 53.8788 22.6376 54.3006C23.0168 54.7415 23.3051 55.2529 23.4857 55.8057C23.6847 56.4434 23.7814 57.1086 23.7724 57.7765ZM17.1429 57.7765C17.1363 58.3363 17.1762 58.8958 17.2625 59.4489C17.3304 59.8652 17.4634 60.2684 17.6566 60.6434C17.8142 60.9557 18.0485 61.2227 18.3375 61.4198C18.6474 61.6043 19.0042 61.6956 19.3648 61.6826C19.7291 61.6953 20.0895 61.604 20.404 61.4198C20.6958 61.226 20.9309 60.9581 21.0847 60.6434C21.2736 60.2676 21.4026 59.8645 21.4671 59.4489C21.5473 58.8951 21.5872 58.3361 21.5865 57.7765C21.5876 57.2209 21.5478 56.666 21.4671 56.1163C21.4013 55.7009 21.2724 55.2981 21.0847 54.9217C20.9342 54.608 20.6982 54.3431 20.404 54.1573C20.0982 53.973 19.7454 53.8817 19.3886 53.8945C19.0302 53.8724 18.6735 53.9586 18.3647 54.1418C18.0558 54.325 17.8091 54.5967 17.6566 54.9217C17.4647 55.2973 17.3318 55.7002 17.2625 56.1163C17.1758 56.6653 17.1358 57.2208 17.1429 57.7765Z" fill="white"/>
<path d="M24.8115 62.459V61.7662H25.361H25.6238C25.7047 61.7458 25.7788 61.7047 25.8388 61.6468C25.9052 61.5753 25.9544 61.4895 25.9822 61.3959C25.9979 61.245 25.9979 61.0929 25.9822 60.942V54.7187C25.998 54.5719 25.998 54.4236 25.9822 54.2768C25.9544 54.1833 25.9052 54.0974 25.8388 54.0259C25.7822 53.9635 25.7067 53.9215 25.6238 53.9065C25.5367 53.8932 25.4481 53.8932 25.361 53.9065H24.8115V53.2256H29.3147V53.9065H28.7653C28.6781 53.8941 28.5897 53.8941 28.5025 53.9065C28.4252 53.9199 28.354 53.9575 28.2994 54.014C28.2292 54.0799 28.1759 54.162 28.1442 54.2529C28.1223 54.3914 28.1223 54.5325 28.1442 54.671V61.6945H30.5332C30.6662 61.7007 30.7989 61.6784 30.9226 61.6289C31.0462 61.5795 31.1578 61.5041 31.2499 61.4078C31.4383 61.1596 31.5616 60.868 31.6082 60.5598L31.8231 59.5803H32.5518L32.4562 62.4828L24.8115 62.459Z" fill="white"/>
<path d="M41.4508 53.8227H40.8178C40.7668 53.8105 40.7135 53.8105 40.6625 53.8227C40.6034 53.8576 40.5541 53.9069 40.5192 53.9661C40.4619 54.0566 40.4139 54.1526 40.3758 54.2527L40.1967 54.7306L37.5329 62.4589H36.231L33.4598 54.4797C33.4251 54.3685 33.3727 54.2635 33.3045 54.1691C33.2421 54.0957 33.1698 54.0313 33.0895 53.978C33.022 53.9294 32.9444 53.8967 32.8625 53.8824H32.6595H32.3608V53.2016H36.6491V53.8824H36.0518H35.8726L35.7054 53.9542C35.6516 53.9934 35.609 54.046 35.5818 54.1067C35.5545 54.1674 35.5436 54.2342 35.5502 54.3006C35.5399 54.3958 35.5399 54.4919 35.5502 54.5872C35.5502 54.6947 35.5502 54.7784 35.6218 54.8619L36.9955 58.8754C36.9955 58.971 37.0552 59.0784 37.091 59.2099L37.1985 59.628C37.1985 59.7713 37.2702 59.9146 37.2941 60.0579C37.318 60.2012 37.2941 60.3327 37.3538 60.4402C37.372 60.3433 37.3959 60.2476 37.4255 60.1535C37.4516 60.0158 37.4875 59.8801 37.5329 59.7474C37.5329 59.5921 37.6166 59.4487 37.6644 59.3054C37.7122 59.1621 37.748 59.0307 37.7838 58.9113L39.1336 54.9455C39.13 54.8938 39.13 54.8419 39.1336 54.7903C39.139 54.7307 39.139 54.6707 39.1336 54.611C39.1437 54.5558 39.1437 54.4992 39.1336 54.4439C39.1373 54.4002 39.1373 54.3562 39.1336 54.3125C39.1365 54.2495 39.1251 54.1867 39.1002 54.1288C39.0754 54.0709 39.0378 54.0194 38.9902 53.978C38.8791 53.8978 38.745 53.8559 38.608 53.8585H37.9271V53.1777H41.2956L41.4508 53.8227Z" fill="white"/>
<path d="M45.1178 61.6473H47.7219C47.8375 61.6517 47.9526 61.627 48.0563 61.5756C48.1555 61.5243 48.2414 61.4507 48.3072 61.3605C48.3754 61.2661 48.4278 61.1611 48.4624 61.0499C48.5082 60.9224 48.5403 60.7902 48.558 60.6558L48.6536 60.0466H49.5613L49.4658 62.4356H41.833V61.7427H42.3825C42.4697 61.7551 42.5581 61.7551 42.6452 61.7427C42.7262 61.7294 42.8011 61.692 42.8603 61.6353C42.9269 61.5733 42.9763 61.495 43.0036 61.4083C43.0196 61.2694 43.0196 61.1291 43.0036 60.9902V54.6954C43.0194 54.5484 43.0194 54.4002 43.0036 54.2533C42.9758 54.1597 42.9267 54.0739 42.8603 54.0025C42.8037 53.9401 42.7282 53.8981 42.6452 53.883C42.5582 53.8697 42.4696 53.8697 42.3825 53.883H41.833V53.2021H49L49.0597 55.5911H48.1519L48.0802 54.9701C48.0748 54.7089 47.9916 54.4551 47.8413 54.2413C47.7715 54.1543 47.6821 54.0853 47.5803 54.0396C47.4785 53.9939 47.3674 53.9729 47.2561 53.9786H45.1178V57.2395H48.2116V58.0279H45.1178V61.6473Z" fill="white"/>
<path d="M57.5763 62.459L52.4998 55.2921V60.9181C52.4782 61.0686 52.4782 61.2215 52.4998 61.372C52.5266 61.4688 52.5804 61.5558 52.6551 61.6229C52.7085 61.6831 52.7795 61.7249 52.8582 61.7423H53.1209H53.6704V62.459H50.2661V61.7662H50.8156H51.0664C51.1473 61.7458 51.2214 61.7047 51.2814 61.6468C51.3479 61.5753 51.3969 61.4895 51.4247 61.3959C51.4463 61.2454 51.4463 61.0925 51.4247 60.942V54.671C51.4467 54.5325 51.4467 54.3914 51.4247 54.2529C51.3973 54.1627 51.3481 54.0806 51.2814 54.014C51.2207 53.9595 51.1465 53.9224 51.0664 53.9065C50.9832 53.8949 50.8988 53.8949 50.8156 53.9065H50.2661V53.2256H53.1567L57.7555 59.7237V54.7068C57.7587 54.5651 57.7386 54.4238 57.6957 54.2887C57.6683 54.1986 57.6191 54.1164 57.5525 54.0498C57.4918 53.9953 57.4175 53.9582 57.3374 53.9423C57.2543 53.9299 57.1697 53.9299 57.0866 53.9423H56.5371V53.2615H59.9414V53.9423H59.4516C59.3684 53.9307 59.2841 53.9307 59.2009 53.9423C59.118 53.9574 59.0423 53.9994 58.9858 54.0618C58.9193 54.1332 58.8703 54.2191 58.8425 54.3126C58.8208 54.4591 58.8208 54.6081 58.8425 54.7545V62.459H57.5763Z" fill="white"/>
<path d="M63.6563 62.5674C63.1652 62.577 62.6752 62.5208 62.1991 62.4003C61.8603 62.3175 61.5401 62.1716 61.2554 61.9701C61.0387 61.8287 60.8652 61.6303 60.7537 61.3968C60.66 61.1941 60.6072 60.975 60.5984 60.7518C60.5907 60.5693 60.6281 60.3878 60.7072 60.2231C60.7865 60.0586 60.905 59.916 61.0523 59.8081C61.1985 59.7104 61.36 59.6377 61.5302 59.5932C61.7108 59.5549 61.895 59.5348 62.0796 59.5334C62.0757 59.8645 62.1199 60.1945 62.211 60.5129C62.2826 60.7716 62.4088 61.012 62.5813 61.2176C62.7316 61.4036 62.9241 61.5509 63.1427 61.6476C63.3688 61.7456 63.6131 61.7944 63.8594 61.791C64.0908 61.7943 64.3211 61.7579 64.5402 61.6836C64.728 61.6232 64.8994 61.5211 65.042 61.3849C65.1837 61.2611 65.2942 61.1056 65.3645 60.9309C65.438 60.7573 65.4746 60.5701 65.472 60.3815C65.4752 60.1787 65.4302 59.9782 65.3406 59.7962C65.2434 59.608 65.1045 59.4445 64.9344 59.3184C64.7175 59.1442 64.481 58.9959 64.2296 58.8764C63.9195 58.7153 63.6005 58.5718 63.2741 58.4464C62.8588 58.2883 62.459 58.0923 62.0796 57.8612C61.7967 57.6914 61.5428 57.4777 61.3271 57.2281C61.1398 57.0134 61.0012 56.7608 60.921 56.4875C60.8331 56.2011 60.7888 55.9031 60.7896 55.6036C60.7844 55.2315 60.8662 54.8634 61.0284 54.5285C61.1934 54.2113 61.4209 53.9309 61.6974 53.7044C61.9988 53.4626 62.3433 53.2802 62.7127 53.1668C63.1235 53.0447 63.5502 52.9843 63.9789 52.9877C64.3802 52.9831 64.7808 53.0231 65.1733 53.1071C65.4769 53.1625 65.7682 53.2717 66.0334 53.4296C66.2444 53.5398 66.4218 53.7049 66.547 53.9074C66.6543 54.0883 66.7121 54.2943 66.7143 54.5046C66.714 54.6508 66.677 54.7946 66.6067 54.9227C66.5418 55.0641 66.4383 55.1841 66.308 55.2691C66.155 55.3727 65.9853 55.4496 65.8064 55.4961C65.5767 55.5575 65.3394 55.5857 65.1017 55.5797C65.1 55.3824 65.076 55.1861 65.03 54.9943C64.9881 54.786 64.9069 54.5873 64.7911 54.4091C64.6833 54.2277 64.5363 54.0727 64.3611 53.9551C64.1739 53.8308 63.9526 53.7681 63.728 53.776C63.557 53.7727 63.387 53.801 63.2264 53.8596C63.0757 53.9039 62.937 53.9815 62.8202 54.0866C62.6999 54.1907 62.6059 54.3216 62.5455 54.4688C62.472 54.6299 62.4353 54.8054 62.4379 54.9824C62.4386 55.158 62.4709 55.332 62.5335 55.4961C62.604 55.6774 62.7142 55.8407 62.856 55.9738C63.054 56.1569 63.2748 56.3135 63.513 56.4396C63.8605 56.6292 64.2195 56.7968 64.588 56.9414C64.9996 57.0939 65.3989 57.2776 65.7825 57.4909C66.0662 57.6596 66.3237 57.8689 66.547 58.1119C66.7423 58.3178 66.8927 58.5619 66.9889 58.8286C67.0837 59.1093 67.1282 59.4045 67.1204 59.7007C67.1325 60.0922 67.0524 60.4811 66.8863 60.836C66.7204 61.1908 66.4731 61.5016 66.1648 61.7433C65.8327 62.0064 65.4566 62.2086 65.0539 62.3404C64.6007 62.4803 64.1304 62.5566 63.6563 62.5674Z" fill="white"/>
<path d="M69.7243 62.459V61.7662H70.6321C70.7147 61.7542 70.7928 61.7213 70.859 61.6706C70.9345 61.6068 70.9921 61.5245 71.0263 61.4317C71.0696 61.2886 71.0897 61.1394 71.086 60.9898V59.1861L68.697 54.5635C68.6449 54.4481 68.585 54.3363 68.5179 54.229C68.471 54.1511 68.4102 54.0822 68.3387 54.0259C68.2699 53.9675 68.1879 53.9265 68.0998 53.9065C67.9928 53.8919 67.8843 53.8919 67.7774 53.9065H67.6101V53.2256H71.97V53.9065H71.7549C71.5426 53.8924 71.3319 53.9514 71.1577 54.0737C71.0955 54.1237 71.0459 54.1877 71.0128 54.2602C70.9796 54.3328 70.9638 54.412 70.9666 54.4917C70.97 54.6173 70.99 54.7419 71.0263 54.8621C71.0637 54.9855 71.1117 55.1053 71.1696 55.2205L72.1252 57.1316C72.25 57.3682 72.3618 57.6113 72.4597 57.8602C72.5552 58.0753 72.6269 58.2783 72.6986 58.4814C72.7942 58.2544 72.8897 58.0036 73.0092 57.7408C73.1286 57.478 73.26 57.1913 73.4034 56.8927L74.1559 55.3399C74.2353 55.1888 74.2955 55.0282 74.335 54.8621C74.3485 54.759 74.3485 54.6546 74.335 54.5516C74.3417 54.4585 74.3256 54.3653 74.2881 54.28C74.2507 54.1947 74.193 54.1197 74.1201 54.0618C73.924 53.9502 73.7004 53.8963 73.475 53.9065H73.1764V53.2256H76.5807V53.9065H76.3418C76.2469 53.8911 76.1501 53.8911 76.0551 53.9065C75.9669 53.9429 75.8891 54.0003 75.8282 54.0737C75.7427 54.1671 75.6704 54.2715 75.6131 54.3843C75.5415 54.5157 75.446 54.6829 75.3503 54.886L73.1406 59.1981V60.9779C73.1113 61.1238 73.1113 61.274 73.1406 61.4198C73.1645 61.5144 73.2191 61.5984 73.2958 61.6587C73.3567 61.7198 73.4369 61.7579 73.5228 61.7662H74.4426V62.459H69.7243Z" fill="white"/>
<path d="M53.4793 45.5811C52.2848 45.5811 51.5562 43.9924 51.377 43.1921C51.372 43.1365 51.372 43.0805 51.377 43.0248L50.947 42.6904L50.3975 42.774C49.7992 42.8464 49.2052 42.95 48.6177 43.0845H48.4744C48.4744 43.0845 48.4744 43.0845 48.4744 43.1563C48.5938 43.7534 51.3412 45.5453 52.7865 46.5127H53.8137C54.2138 46.5318 54.6147 46.5038 55.0082 46.4291C55.0082 45.7721 54.5662 45.6647 53.5867 45.4735L53.4793 45.5811Z" fill="white"/>
<path d="M36.7565 44.6739C36.925 44.7523 37.0603 44.8876 37.1387 45.0561C37.1478 44.9133 37.1125 44.7713 37.0377 44.6494C36.9629 44.5274 36.8521 44.4317 36.7206 44.3753C36.3124 44.1309 36.0035 43.7501 35.8486 43.3002C35.8486 43.3002 35.1678 40.9113 35.0125 40.0273C34.5179 40.4162 33.9948 40.7676 33.4478 41.0785C34.2371 42.0295 34.8665 43.1027 35.3112 44.2559C35.3112 44.3753 35.3112 44.4708 35.3112 44.5544C35.3112 44.9487 35.3111 44.9606 35.4067 45.0203C35.4772 45.038 35.5512 45.038 35.6217 45.0203C35.687 45.0212 35.7514 45.0354 35.811 45.0621C35.8705 45.0888 35.9241 45.1274 35.9681 45.1756C36.0283 45.2686 36.0764 45.369 36.1114 45.4742C36.443 45.4713 36.7711 45.4065 37.079 45.2831C37.085 45.1915 37.0631 45.1002 37.0162 45.0213C36.9693 44.9425 36.8995 44.8795 36.8162 44.8411H36.7445L36.7565 44.6739ZM36.6251 45.4503C36.6251 45.4503 36.6251 45.4503 36.6251 45.3787C36.5926 45.2946 36.5374 45.2209 36.4657 45.1662C36.3941 45.1114 36.3087 45.0774 36.219 45.0681H36.1472V44.9606C36.2927 44.9525 36.4361 44.9977 36.5505 45.0879C36.665 45.178 36.7424 45.307 36.7684 45.4503H36.6251Z" fill="white"/>
<path d="M64.3613 38.2597C64.5947 38.0796 64.7865 37.8511 64.9234 37.5898C64.7682 37.6024 64.6121 37.6024 64.4569 37.5898H64.3254C64.3254 37.7334 64.3254 37.8052 64.433 37.6617C64.4809 38.0086 64.0981 38.3913 64.3613 38.2597Z" fill="white"/>
<path d="M63.8953 38.3556H64.0388L64.2063 38.4155C64.2128 38.3358 64.2128 38.2558 64.2063 38.1763C64.2063 38.0087 64.1345 38.1762 64.0627 38.3078C64.0627 38.3078 64.0627 38.2241 64.0627 38.1882C64.0627 38.1523 63.979 38.1284 63.9192 38.2958C63.9259 38.2522 63.9259 38.2079 63.9192 38.1643C63.9192 37.9968 63.8594 38.0925 63.7996 38.248H63.9431L63.8953 38.3556Z" fill="white"/>
<path d="M63.7282 38.1873C63.7282 38.0438 63.6684 38.1156 63.6206 38.2471H63.7521C63.7521 38.2471 63.7401 38.2232 63.7282 38.1873Z" fill="white"/>
<path d="M64.1104 37.6737C64.1119 37.6458 64.1119 37.6178 64.1104 37.5898H63.9788C64.0386 37.7334 64.0506 37.8172 64.1104 37.6737Z" fill="white"/>
<path d="M64.2297 37.6623C64.2362 37.6429 64.2362 37.6219 64.2297 37.6025C64.2297 37.7341 64.2297 37.8058 64.2297 37.6623Z" fill="white"/>
<path d="M63.9671 37.6618C63.9686 37.6339 63.9686 37.606 63.9671 37.5781H63.8354C63.8834 37.7217 63.8953 37.8173 63.9671 37.6618Z" fill="white"/>
<path d="M63.8237 37.6143H63.7041C63.7519 37.686 63.7639 37.7578 63.8237 37.6143Z" fill="white"/>
<path d="M63.5132 37.602C63.508 37.5784 63.508 37.5539 63.5132 37.5303H63.3696C63.4294 37.6618 63.4414 37.7455 63.5132 37.602Z" fill="white"/>
<path d="M63.6804 37.5428H63.5608C63.5608 37.6744 63.5608 37.7462 63.6684 37.6027C63.7761 37.4591 63.6804 37.5668 63.6804 37.5428Z" fill="white"/>
<path d="M63.3699 37.5906C63.3647 37.5629 63.3647 37.5344 63.3699 37.5068H63.2263C63.2861 37.6504 63.2981 37.7461 63.3699 37.5906Z" fill="white"/>
<path d="M26.2214 28.9073V28.8467L26.1018 28.9073H26.1855H26.2214Z" fill="white"/>
<path d="M47.5667 32.9199C47.5723 32.9556 47.5723 32.9919 47.5667 33.0276C47.5787 32.9926 47.5787 32.9548 47.5667 32.9199Z" fill="white"/>
<path d="M20.5713 35.7148C20.643 35.9301 20.7148 36.1455 20.7986 36.3607C20.7866 36.3249 20.7028 36.0736 20.5713 35.7148Z" fill="white"/>
<path d="M20.1771 34.4726C20.216 34.5367 20.2481 34.6048 20.2726 34.6756L20.3801 34.9026C20.619 35.4759 20.7862 35.9776 20.858 36.2046C20.8619 36.2483 20.8619 36.2923 20.858 36.336C21.0544 36.8895 21.3066 37.4218 21.6105 37.9246C22.0498 38.4799 22.6038 38.9338 23.2345 39.2553C23.8654 39.5769 24.5581 39.7587 25.2656 39.788H25.6239C29.2074 39.4894 32.2413 34.7234 32.2652 34.6756L32.3609 34.7353C32.0112 35.3912 31.7768 36.1023 31.6681 36.8376C31.5456 37.5386 31.3453 38.2237 31.0708 38.8802C30.8677 39.1311 30.7244 39.3221 30.593 39.5014C30.7055 39.6116 30.7699 39.7619 30.7721 39.9194H30.6647C30.6596 39.7964 30.6134 39.6786 30.5332 39.585C30.4347 39.4924 30.3092 39.4338 30.1749 39.4178C30.2761 39.509 30.3645 39.6134 30.4377 39.7284H30.378C30.2199 39.636 30.0455 39.5752 29.8643 39.5491C29.9975 39.6839 30.1212 39.8275 30.2347 39.9791V40.0509C30.0874 39.9371 29.9156 39.8594 29.7329 39.8239C29.981 40.0405 30.1562 40.3282 30.2347 40.648C30.2386 40.7037 30.2386 40.7597 30.2347 40.8153C30.2387 40.8949 30.2387 40.9746 30.2347 41.0541C30.4717 41.555 30.6675 42.0743 30.8199 42.607C30.8796 42.8101 30.9514 43.0251 31.0111 43.2401V43.3237C31.4422 43.962 31.7389 44.6813 31.883 45.438C31.883 45.5574 31.883 45.653 31.883 45.7366C31.883 46.1308 31.883 46.1427 31.9786 46.2024C32.045 46.2378 32.1184 46.2582 32.1936 46.2621C32.337 46.2621 32.4683 46.2621 32.528 46.4055C32.5889 46.5 32.6408 46.6 32.6834 46.7041H33.1611C33.1611 46.7041 33.1611 46.7041 33.1611 46.6324C33.1674 46.5769 33.1622 46.5206 33.1458 46.4672C33.1293 46.4138 33.1021 46.3643 33.0656 46.3219C33.0417 46.2831 33.0136 46.2471 32.9819 46.2143C32.9819 46.2143 33.2806 46.513 33.185 46.7758C33.3143 46.7574 33.4421 46.7295 33.5672 46.6922C33.5926 46.6032 33.5902 46.5086 33.5603 46.4211C33.5304 46.3336 33.4745 46.2573 33.4001 46.2024H33.3283C33.427 46.2662 33.5067 46.3553 33.5592 46.4603C33.6117 46.5653 33.6351 46.6826 33.627 46.7997C33.7584 46.7997 33.842 46.7041 33.842 46.6564V46.5608C33.8727 46.4046 33.8477 46.2425 33.7713 46.1029C33.6948 45.9633 33.572 45.8547 33.4239 45.7963C32.9275 45.5881 32.5095 45.2286 32.2294 44.769C32.0637 44.2195 31.928 43.6612 31.8233 43.0967V43.037C31.8233 42.9176 31.8233 42.8221 31.8233 42.7265C31.8072 42.5238 31.8072 42.32 31.8233 42.1173C32.3609 41.8545 32.8267 41.6036 33.2686 41.3528C33.83 41.0271 34.3687 40.664 34.8812 40.2658C37.0432 38.4622 36.7088 37.0169 36.4698 35.9657C36.4698 35.7745 36.3862 35.6074 36.3624 35.452C36.4779 35.2348 36.6498 35.0524 36.8599 34.9243C37.07 34.7961 37.3108 34.7267 37.5569 34.7234C38.1856 34.7822 38.7898 34.9965 39.3153 35.3468C39.8406 35.6971 40.2708 36.1724 40.5669 36.7301C41.7615 41.6514 44.0071 42.1651 44.9388 42.3681C45.2613 42.4517 45.4763 42.4996 45.4404 42.7026C45.388 42.8937 45.2848 43.067 45.1418 43.2043C45.1676 43.3062 45.1676 43.4129 45.1418 43.5149H45.0343C45.0525 43.4443 45.0525 43.3703 45.0343 43.2998C45.0332 43.2799 45.0332 43.26 45.0343 43.2401V43.1685C44.9514 43.0447 44.8294 42.9522 44.6879 42.9057C44.7937 43.0354 44.8711 43.1861 44.9149 43.3476C44.9149 43.3476 44.8312 43.3476 44.8193 43.3476C44.6833 43.2178 44.5201 43.1198 44.3415 43.0609C44.4708 43.2517 44.5866 43.4512 44.6879 43.6582H44.6163C44.4954 43.5052 44.334 43.3893 44.1504 43.3237C44.3372 43.5559 44.4495 43.8389 44.4729 44.1359C44.4729 44.1359 44.4729 44.2076 44.4729 44.2435C44.4729 44.2793 44.4729 44.4226 44.4729 44.4704V44.566C44.5924 45.1512 47.3278 46.9549 48.7731 47.9105C49.2306 47.9345 49.6891 47.9345 50.1468 47.9105C50.1194 47.837 50.0874 47.7652 50.0511 47.6956C50.0511 47.6358 50.0511 47.6238 50.0511 47.6119H50.1587C50.2078 47.6992 50.2479 47.7912 50.2781 47.8866H50.6365C50.6079 47.8001 50.5719 47.7162 50.529 47.6358C50.529 47.6358 50.529 47.5761 50.529 47.5522H50.6245C50.6736 47.6394 50.7137 47.7315 50.7439 47.8269H50.959C50.959 47.17 50.529 47.0625 49.5495 46.8713C48.2475 46.8713 47.483 44.9483 47.4233 44.3271C47.4233 44.0046 47.6383 43.8015 48.1161 43.6462H48.2236H48.3191C48.906 43.4385 49.4549 43.1359 49.9437 42.7503C50.2798 42.4746 50.5561 42.1332 50.7559 41.747C50.9404 41.3461 51.0358 40.9101 51.0358 40.4689C51.0358 40.0277 50.9404 39.5916 50.7559 39.1908C50.9492 39.6124 51.0491 40.0708 51.0491 40.5346C51.0491 40.9984 50.9492 41.4568 50.7559 41.8784C50.5435 42.2698 50.2599 42.6182 49.9198 42.9057C49.5797 43.1787 49.2065 43.4074 48.8089 43.5865L50.0034 43.4073L50.4454 43.3357H50.6006C50.9829 43.2759 51.389 43.2163 51.7951 43.1326C52.0417 43.1493 52.2891 43.1493 52.5356 43.1326C53.4169 43.1108 54.2786 42.8688 55.0423 42.4285C55.8059 41.9883 56.4472 41.3638 56.9075 40.6122C57.085 40.3599 57.2892 40.1277 57.5167 39.9194C57.1775 39.9153 56.8495 39.7975 56.585 39.585C56.4644 39.4772 56.3687 39.3445 56.3047 39.1959C56.2408 39.0474 56.2101 38.8866 56.2147 38.725H56.3222C56.3186 38.8644 56.3456 39.0031 56.4014 39.131C56.4571 39.2589 56.5402 39.3732 56.6447 39.4655C56.9467 39.6915 57.3196 39.8016 57.6959 39.7761H57.7795C57.8744 39.7703 57.9681 39.8001 58.0423 39.8597H58.1139C58.147 39.7373 58.2181 39.6285 58.317 39.5491C58.2362 39.6229 58.1781 39.7182 58.1497 39.8239C58.1497 39.9194 58.1498 40.027 58.09 40.1106C58.1514 40.0295 58.2193 39.9535 58.2931 39.8836C58.3756 39.8045 58.4679 39.7362 58.5679 39.6806C58.5679 39.6806 58.5679 39.7642 58.5679 39.8C58.5455 39.8344 58.5255 39.8703 58.5082 39.9075C58.5082 39.9075 58.5082 39.9075 58.5082 39.9672C58.4511 40.1665 58.411 40.3703 58.3885 40.5764C58.5099 40.4279 58.6417 40.2881 58.7828 40.1583L58.974 39.9791H59.0337L59.1292 39.9194H59.201C59.201 39.9194 59.201 39.9194 59.201 39.9911H59.1412C59.1412 39.9911 59.1412 39.9911 59.0815 40.0509C58.9093 40.3052 58.8139 40.6037 58.8067 40.9108C58.9501 40.4808 59.5474 40.1822 59.9416 40.027L60.1087 39.9672H60.2402H60.3238V39.9075H60.3835C60.659 39.9657 60.9274 40.0539 61.1838 40.1703C61.3272 40.1703 62.5215 40.1703 63.2859 40.0509H63.4771H63.8117C63.8569 40.039 63.8992 40.0179 63.9362 39.9892C63.9731 39.9605 64.0039 39.9245 64.0266 39.8836C64.0758 39.6627 64.0506 39.4318 63.955 39.2266L64.2297 38.5696H64.0745H64.0147H63.9191H63.8236H63.7042L62.9397 38.3069V37.5304H63.0114L63.3697 37.6022H63.525H63.8594H63.9789H64.2894H64.612C64.779 37.6158 64.9467 37.6158 65.1137 37.6022H65.2211C65.4329 37.5549 65.6173 37.4262 65.7347 37.2438L65.8064 37.1362C65.8764 37.0098 65.9249 36.8725 65.9498 36.7301C65.9498 36.7301 65.4121 36.4793 64.7552 36.1448C64.4447 35.9896 64.0984 35.8104 63.7878 35.6312C63.4772 35.452 62.9635 35.1176 62.7247 34.9504L62.653 34.8787C62.5716 34.6861 62.4586 34.5085 62.3186 34.3531C61.9642 33.9946 61.5304 33.7246 61.0524 33.5648C60.7956 33.4725 60.532 33.4005 60.2641 33.3497C59.8723 33.2351 59.4732 33.1473 59.0695 33.087V33.2542C58.6523 33.2175 58.2326 33.2175 57.8154 33.2542L58.126 33.4573C57.9928 33.3565 57.8531 33.2647 57.7078 33.1825H57.6362H57.5526C57.1778 32.9701 56.776 32.8094 56.358 32.7047C56.0714 32.633 56.0235 32.7047 56.0116 32.7047C55.997 32.7474 55.997 32.7936 56.0116 32.8362C56.0931 32.9884 56.1891 33.1325 56.2983 33.2661V33.3378L56.4059 33.4693C56.5022 33.5921 56.5861 33.7241 56.6567 33.8634L56.7642 34.0186C56.8497 34.1143 56.9547 34.1905 57.0722 34.242C57.1897 34.2935 57.3168 34.3191 57.4451 34.3173V34.4367C57.3034 34.432 57.1644 34.3976 57.0368 34.3359C56.9093 34.2742 56.7961 34.1865 56.7044 34.0783L56.5969 33.8992C56.5251 33.7607 56.4412 33.6288 56.3461 33.5051L56.2266 33.3497V33.2781L55.8922 33.2064L55.6771 33.2781C55.8205 33.4573 56.0235 33.7081 56.0834 33.7679L56.3939 34.1979L56.6685 34.1262L56.2983 34.2217L55.9877 33.8037C55.3349 34.7737 54.3489 35.4707 53.2165 35.7626C52.8513 35.86 52.4701 35.8816 52.0962 35.826C51.7224 35.7706 51.3637 35.6393 51.0425 35.4401L50.4454 34.9623V34.8787L50.3617 34.7473L50.2781 34.6159C49.884 33.9589 49.1434 32.5733 49.5614 31.785C49.5989 31.7201 49.6309 31.6521 49.657 31.5819C49.2176 32.035 48.9477 32.6255 48.8925 33.2542C48.8925 33.3497 48.8925 33.4573 48.9522 33.5648C48.9522 33.5648 48.9522 33.5648 48.8925 33.5648V33.3975C48.8866 33.3499 48.8866 33.3018 48.8925 33.2542C48.7802 32.7241 48.7241 32.1836 48.7253 31.6416C48.4609 32.0072 48.2516 32.4098 48.1042 32.8362C48.0928 32.8873 48.0928 32.9402 48.1042 32.9914C48.1042 33.0751 48.1042 33.1228 48.1042 33.1467C48.1042 33.1706 48.1042 33.1467 48.0325 33.1467C47.963 32.9905 47.9148 32.8259 47.8891 32.6569C47.8891 32.6569 47.8891 32.6569 47.8891 32.5733C47.8891 32.4898 47.8891 32.5733 47.8891 32.5017C47.8419 32.221 47.8419 31.9343 47.8891 31.6535C47.7601 31.8317 47.6518 32.0242 47.5666 32.2269C47.5666 32.2269 47.5666 32.2269 47.5666 32.2866C47.486 32.479 47.4612 32.69 47.495 32.8958H47.3875C47.3514 32.6566 47.3845 32.4121 47.483 32.1911C41.3792 27.4968 40.6386 27.5565 37.5569 27.8192L36.5416 27.9029C35.7711 28.0235 35.0346 28.3043 34.3795 28.7271C34.6401 28.7708 34.9037 28.7948 35.1679 28.7987V28.9183H35.0723C34.7997 28.9054 34.5283 28.8734 34.2601 28.8226H34.1048C33.8347 28.7961 33.5733 28.7121 33.3384 28.5762C33.1036 28.4401 32.9005 28.2554 32.7431 28.0343V27.9388C32.8468 28.401 33.0934 28.8188 33.4479 29.1332L33.5792 29.2049H33.6508C33.6508 29.2049 33.6508 29.2048 33.6508 29.2766H33.5792H33.5075L33.412 29.2168C33.043 29.0384 32.6912 28.8265 32.3609 28.5838C32.4741 28.981 32.6739 29.3481 32.9461 29.6588L33.0177 29.7305H32.9341C32.5786 29.6129 32.2498 29.4261 31.9666 29.181C32.0861 29.4916 32.2891 29.9216 32.5639 30.0291V30.0888H32.6355L32.767 30.0291L32.9222 29.9575C31.8748 31.1229 30.9539 32.3962 30.1749 33.7559C29.5832 34.9301 28.7722 35.9802 27.7859 36.8496C26.2928 37.2797 25.3014 37.1721 24.8236 36.5271C24.6162 36.0926 24.5016 35.6196 24.4872 35.1383C24.4728 34.6571 24.5589 34.1782 24.74 33.732C24.6247 33.8401 24.517 33.9557 24.4175 34.0783L24.513 33.9828L24.8833 33.5886L24.955 33.5289L25.0387 33.4453C25.9225 32.5733 27.559 31.1997 28.4907 31.8566C28.5803 31.9351 28.6864 31.9922 28.8012 32.0239C28.6239 31.6906 28.3701 31.404 28.0606 31.1877C27.6798 30.8393 27.1792 30.6511 26.6631 30.6622L26.2451 30.8294H26.1853C26.1853 30.8294 26.1256 30.8294 26.1137 30.8294C26.1017 30.8294 26.1137 30.8294 26.1137 30.7577H26.2092L26.4003 30.6742L26.5914 30.6143C27.2711 30.2914 28.0129 30.1202 28.7654 30.1127C28.303 29.5693 27.7056 29.1573 27.0334 28.9183H26.8782C26.7946 28.9183 26.7109 28.9183 26.687 28.9183C26.6631 28.9183 26.687 28.8107 26.8065 28.7629C26.9005 28.7011 27.0005 28.6491 27.1051 28.6077H27.1768H27.2604C27.7218 28.3771 28.2431 28.2937 28.7534 28.3687C28.4716 28.0811 28.1499 27.8358 27.7979 27.6401H27.7262C27.6259 27.5984 27.5183 27.5769 27.4096 27.5769C27.301 27.5769 27.1935 27.5984 27.0931 27.6401C27.2198 27.5788 27.3586 27.547 27.4993 27.547C27.6399 27.547 27.7787 27.5788 27.9054 27.6401C28.5385 26.5412 29.0999 25.6692 29.3746 25.2511C31.9547 21.9066 30.378 19.3384 28.837 17.7975L28.5385 17.5109L28.3235 17.3197C28.0129 17.045 27.7142 16.8061 27.4873 16.627C27.367 16.5374 27.2514 16.4417 27.141 16.3403C27.0334 16.2447 26.9976 16.185 27.0095 16.1372C27.0214 16.0894 27.1171 16.0775 27.1887 16.1372V16.2447L27.5709 16.5672C27.7262 16.6747 27.8935 16.8181 28.0845 16.9734C26.8911 15.5073 26.2525 13.6675 26.2809 11.7773C24.8356 13.9155 24.286 15.8506 24.6563 17.5348C24.8808 18.5736 25.4646 19.4999 26.3048 20.1507C26.3807 20.205 26.4491 20.2693 26.5079 20.3418C26.712 20.6392 26.809 20.9973 26.7826 21.3571C26.8901 22.3127 26.257 22.9338 25.5881 23.6506C25.108 24.0896 24.6756 24.578 24.298 25.1078C22.8628 26.9452 21.8549 29.0793 21.3477 31.355C21.6564 31.4142 21.9469 31.5451 22.1957 31.7372C21.9561 31.567 21.6835 31.4491 21.3954 31.3908H21.2879C20.8089 31.281 20.3214 31.2131 19.8307 31.1877C20.3185 31.5273 20.7602 31.9288 21.1445 32.3823L21.2163 32.4539L21.5508 32.8481C21.6094 32.9008 21.6652 32.9566 21.7179 33.0153L21.8254 33.1587L21.9091 33.2781C21.9091 33.2781 21.9091 33.3378 21.9091 33.3497C21.9091 33.3617 21.9091 33.3497 21.8254 33.3497L21.7657 33.29L21.4551 32.9197C21.3724 32.8532 21.2845 32.7934 21.1924 32.7406H21.1207H21.0609C20.5522 32.4959 20.0002 32.3538 19.4365 32.3224C19.207 32.2858 18.9732 32.2858 18.7437 32.3224C18.8661 32.377 18.9943 32.4171 19.1259 32.442C19.0184 32.4778 19.7112 33.4931 20.1771 34.4726ZM61.793 35.5357V35.6193L61.4585 35.4999C61.3949 35.5948 61.3099 35.6735 61.2103 35.7295C61.1107 35.7855 60.9994 35.8173 60.8851 35.8223H60.7775L60.6105 35.7626C60.6105 35.7626 59.6907 35.1654 59.5713 34.6995C59.5481 34.5675 59.508 34.439 59.4517 34.3173L59.8101 34.5443C60.0159 34.625 60.2342 34.6695 60.4551 34.6756C60.5342 34.6881 60.6149 34.6881 60.6941 34.6756C60.807 34.6139 60.9378 34.5928 61.0643 34.6159C61.4108 34.6995 61.5899 34.8309 61.6258 35.0101L61.8049 35.1774C61.8537 35.2034 61.8934 35.2436 61.919 35.2926C61.9445 35.3416 61.9547 35.3972 61.9482 35.452C61.9189 35.4875 61.8823 35.5161 61.8407 35.5357H61.793ZM65.1615 36.3121L65.3167 36.3957L65.4361 36.4554H65.5317H65.6273C65.575 36.7036 65.4402 36.9267 65.2449 37.0885C65.3882 36.6824 64.5284 35.9777 64.2297 35.7507L64.4806 35.8821L64.6478 35.9657H64.7434H64.827L64.9703 36.0374L65.1615 36.3121Z" fill="white"/>
<path d="M61.1127 34.7471H61.005C60.8017 34.7471 60.6462 34.9145 60.6581 35.0581C60.6701 35.2016 60.8615 35.3092 61.0648 35.2853C61.0035 35.2197 60.9657 35.1355 60.9572 35.0461C60.9556 34.9871 60.969 34.9287 60.9962 34.8764C61.0234 34.8241 61.0635 34.7796 61.1127 34.7471Z" fill="white"/>
<path d="M79.7579 55.1015C79.7488 55.1408 79.7488 55.1816 79.7579 55.2209C79.7517 55.2318 79.7484 55.2442 79.7484 55.2567C79.7484 55.2693 79.7517 55.2817 79.7579 55.2926C79.767 55.2978 79.7773 55.3006 79.7878 55.3006C79.7983 55.3006 79.8086 55.2978 79.8176 55.2926H80.0327V55.4718H78.8382V55.2926H79.0532C79.0623 55.2978 79.0726 55.3006 79.0831 55.3006C79.0935 55.3006 79.1038 55.2978 79.1129 55.2926C79.1174 55.2689 79.1174 55.2446 79.1129 55.2209C79.1209 55.1815 79.1209 55.1409 79.1129 55.1015V53.2142H78.6948H78.6113C78.6051 53.2417 78.6051 53.2702 78.6113 53.2978C78.6057 53.3334 78.6057 53.3697 78.6113 53.4053V53.6203H78.3723V52.9395H80.5702V53.6203H80.3313V53.4053C80.3313 53.4053 80.3313 53.3337 80.3313 53.2978C80.3336 53.2699 80.3336 53.242 80.3313 53.2142H80.2357H79.7579V55.1015Z" fill="white"/>
<path d="M82.7561 55.5198V55.2928H82.8875H82.9591V55.2331C82.9665 55.1977 82.9665 55.161 82.9591 55.1256V53.3338L82.2424 55.5078H82.0036L81.2629 53.3338V55.0897C81.2549 55.1292 81.2549 55.1698 81.2629 55.2092C81.2581 55.2328 81.2581 55.2572 81.2629 55.2808C81.2902 55.2899 81.3195 55.2899 81.3466 55.2808H81.478V55.4601H80.606V55.2928H80.9525C80.9525 55.2928 80.9525 55.2928 80.9525 55.2211C80.9606 55.1858 80.9606 55.149 80.9525 55.1137V53.3936C80.9605 53.3542 80.9605 53.3135 80.9525 53.2741C80.9581 53.2546 80.9581 53.2339 80.9525 53.2144H80.7374V53.0352H81.7527L82.3381 54.7433L82.9114 53.0352H83.9028V53.2144H83.6877C83.6832 53.2381 83.6832 53.2624 83.6877 53.286C83.6797 53.3254 83.6797 53.3662 83.6877 53.4056V55.0897C83.6797 55.1292 83.6797 55.1698 83.6877 55.2092C83.6832 55.2329 83.6832 55.2572 83.6877 55.2808H83.9028V55.4601L82.7561 55.5198Z" fill="white"/>
</g>
</svg>
